<?xml version="1.0" encoding="UTF-8" standalone="no"?>
<svg
   xmlns:dc="http://purl.org/dc/elements/1.1/"
   xmlns:cc="http://creativecommons.org/ns#"
   xmlns:rdf="http://www.w3.org/1999/02/22-rdf-syntax-ns#"
   xmlns:svg="http://www.w3.org/2000/svg"
   xmlns="http://www.w3.org/2000/svg"
   xmlns:xlink="http://www.w3.org/1999/xlink"
   xmlns:sodipodi="http://sodipodi.sourceforge.net/DTD/sodipodi-0.dtd"
   xmlns:inkscape="http://www.inkscape.org/namespaces/inkscape"
   width="32"
   height="32"
   viewBox="0 0 8.4666665 8.4666669"
   version="1.1"
   id="svg20249"
   inkscape:version="1.0 (4035a4fb49, 2020-05-01)"
   sodipodi:docname="thereel.svg">
  <defs
     id="defs20243">
    <linearGradient
       inkscape:collect="always"
       xlink:href="#linearGradient9085"
       id="linearGradient822-63"
       x1="4.6862917"
       y1="35.595917"
       x2="27.313709"
       y2="-3.5959179"
       gradientUnits="userSpaceOnUse"
       gradientTransform="matrix(0.26458333,0,0,0.26458333,75.629427,277.46167)" />
    <linearGradient
       id="linearGradient9085"
       inkscape:collect="always">
      <stop
         id="stop9081"
         offset="0"
         style="stop-color:#6496ff;stop-opacity:1" />
      <stop
         id="stop9083"
         offset="1"
         style="stop-color:#c8ffff;stop-opacity:1" />
    </linearGradient>
  </defs>
  <sodipodi:namedview
     id="base"
     pagecolor="#ffffff"
     bordercolor="#666666"
     borderopacity="1.0"
     inkscape:pageopacity="0.0"
     inkscape:pageshadow="2"
     inkscape:zoom="15.839192"
     inkscape:cx="-3.5343775"
     inkscape:cy="22.822357"
     inkscape:document-units="mm"
     inkscape:current-layer="layer1"
     showgrid="true"
     units="px"
     inkscape:window-width="2560"
     inkscape:window-height="1380"
     inkscape:window-x="0"
     inkscape:window-y="24"
     inkscape:window-maximized="1"
     inkscape:document-rotation="0">
    <inkscape:grid
       type="xygrid"
       id="grid20794"
       empspacing="4" />
    <inkscape:grid
       type="xygrid"
       id="grid20796"
       empspacing="1"
       originy="0.13229167"
       originx="0.13229167"
       dotted="true" />
  </sodipodi:namedview>
  <metadata
     id="metadata20246">
    <rdf:RDF>
      <cc:Work
         rdf:about="">
        <dc:format>image/svg+xml</dc:format>
        <dc:type
           rdf:resource="http://purl.org/dc/dcmitype/StillImage" />
        <dc:title></dc:title>
      </cc:Work>
    </rdf:RDF>
  </metadata>
  <g
     inkscape:label="Layer 1"
     inkscape:groupmode="layer"
     id="layer1"
     transform="translate(0,-288.53332)">
    <circle
       transform="rotate(15)"
       r="4.2333331"
       style="opacity:1;fill:url(#linearGradient822-63);fill-opacity:1;stroke:none;stroke-width:0.264583;stroke-linecap:round;stroke-linejoin:round;stroke-miterlimit:4;stroke-dasharray:none;stroke-dashoffset:0;stroke-opacity:1;paint-order:normal"
       id="path814-5"
       cx="79.862701"
       cy="281.69485"
       inkscape:export-filename="/home/victor/newcontemporary.png"
       inkscape:export-xdpi="2165.5593"
       inkscape:export-ydpi="2165.5593" />
    <path
       style="opacity:1;fill:#000000;fill-opacity:1;stroke:none;stroke-width:0.360358;stroke-linecap:round;stroke-linejoin:round;stroke-miterlimit:4;stroke-dasharray:none;stroke-dashoffset:0;stroke-opacity:1;paint-order:normal"
       d="m 4.5072552,291.74434 c -0.5663323,-0.15174 -1.1444396,0.18203 -1.2961659,0.74834 l -1.0594403,3.95383 a 4.2333333,4.2333333 0 0 0 0.986025,0.40917 4.2333333,4.2333333 0 0 0 5.1847626,-2.99339 4.2333333,4.2333333 0 0 0 0.1406319,-1.05798 z"
       id="rect824-9"
       inkscape:connector-curvature="0"
       inkscape:export-filename="/home/victor/newcontemporary.png"
       inkscape:export-xdpi="2165.5593"
       inkscape:export-ydpi="2165.5593" />
    <path
       d="m 8.4618235,292.88264 -2.5896513,0.69388 a 0.13249998,0.13249998 0 0 0 -6.328e-4,3.6e-4 0.13249998,0.13249998 0 0 0 -0.00643,0.002 l -3.1729063,0.85004 -0.079179,0.2955 0.1245363,-0.0335 0.3435313,1.2776 -0.863428,0.23141 -0.066072,0.24658 a 4.2333333,4.2333333 0 0 0 0.026579,0.0146 0.13249998,0.13249998 0 0 0 0.076925,0.002 l 2.5509918,-0.68337 a 0.13249998,0.13249998 0 0 0 0.00403,-10e-4 l 1.5243679,-0.40795 0.00453,-9.3e-4 a 0.13249998,0.13249998 0 0 0 0.00453,-9.3e-4 0.13249998,0.13249998 0 0 0 0.00769,-0.003 l 1.4996941,-0.40172 a 4.2333333,4.2333333 0 0 0 0.1772766,-0.32218 l -0.091038,0.0243 -0.3436651,-1.27709 0.8524729,-0.22847 a 4.2333333,4.2333333 0 0 0 0.015846,-0.27876 z m -1.1229176,0.5749 0.3417665,1.27819 -1.2773277,0.34253 -0.3428985,-1.27796 z m -1.5343247,0.41116 0.3422656,1.27833 -1.2766948,0.34216 -0.3417666,-1.27819 z m -1.5331925,0.41093 0.3417665,1.2782 -1.2768285,0.34266 -0.3421319,-1.27882 z"
       style="color:#000000;font-style:normal;font-variant:normal;font-weight:normal;font-stretch:normal;font-size:medium;line-height:normal;font-family:sans-serif;font-variant-ligatures:normal;font-variant-position:normal;font-variant-caps:normal;font-variant-numeric:normal;font-variant-alternates:normal;font-variant-east-asian:normal;font-feature-settings:normal;font-variation-settings:normal;text-indent:0;text-align:start;text-decoration:none;text-decoration-line:none;text-decoration-style:solid;text-decoration-color:#000000;letter-spacing:normal;word-spacing:normal;text-transform:none;writing-mode:lr-tb;direction:ltr;text-orientation:mixed;dominant-baseline:auto;baseline-shift:baseline;text-anchor:start;white-space:normal;shape-padding:0;shape-margin:0;inline-size:0;clip-rule:nonzero;display:inline;overflow:visible;visibility:visible;opacity:1;isolation:auto;mix-blend-mode:normal;color-interpolation:sRGB;color-interpolation-filters:linearRGB;solid-color:#000000;solid-opacity:1;vector-effect:none;fill:#ffffff;fill-opacity:1;fill-rule:nonzero;stroke:none;stroke-width:0.264999;stroke-linecap:round;stroke-linejoin:round;stroke-miterlimit:4;stroke-dasharray:none;stroke-dashoffset:0;stroke-opacity:1;color-rendering:auto;image-rendering:auto;shape-rendering:auto;text-rendering:auto;enable-background:accumulate;stop-color:#000000;stop-opacity:1"
       id="path958" />
  </g>
</svg>
